<?xml version="1.0" encoding="UTF-8"?>
<svg version="1.1" xmlns="http://www.w3.org/2000/svg" width="512" height="512">
<path d="M0 0 C19.34735539 17.48162627 31.83338755 41.45616429 33.19196701 67.70960617 C33.27273994 71.94540969 33.29369342 76.17720205 33.29052734 80.41357422 C33.29652464 82.03120734 33.30333291 83.64883762 33.31088257 85.26646423 C33.32841287 89.62347114 33.333232 93.98039933 33.33451414 98.33743811 C33.335942 101.06327589 33.34022321 103.78909403 33.34550858 106.51492691 C33.36395535 116.03372711 33.37218462 125.55247158 33.37060547 135.07128906 C33.36940071 143.93290208 33.39058207 152.79427288 33.4220928 161.65582454 C33.44823979 169.28158646 33.45897366 176.90726905 33.45769465 184.53307545 C33.4571852 189.08049587 33.46286117 193.62769995 33.48405075 198.17507553 C33.50341037 202.44506535 33.50357346 206.71463156 33.48901749 210.98463631 C33.4869265 212.54953823 33.49164761 214.11446658 33.5037384 215.6793232 C33.51919495 217.81844086 33.50988291 219.95609773 33.49447632 222.09518433 C33.49556585 223.29083448 33.49665539 224.48648464 33.49777794 225.71836662 C32.89504332 229.69193372 31.48463056 231.87839586 29 235 C25.9272718 236.5363641 22.69781919 236.16493711 19.32495117 236.17700195 C18.5328978 236.18357315 17.74084442 236.19014435 16.92478943 236.19691467 C14.29751496 236.21666289 11.67029768 236.22831359 9.04296875 236.23828125 C8.14637354 236.24235678 7.24977833 236.2464323 6.32601357 236.25063133 C1.58054458 236.27149852 -3.16489543 236.28579745 -7.91040039 236.29516602 C-12.81332171 236.30623218 -17.71578939 236.3406325 -22.6185503 236.38033772 C-26.38723091 236.40647655 -30.15580298 236.41485541 -33.92456627 236.41844749 C-35.7318802 236.4233205 -37.53918906 236.43495478 -39.34641457 236.45348549 C-41.87689837 236.47781941 -44.40620273 236.47692276 -46.93676758 236.4699707 C-48.05523071 236.48918579 -48.05523071 236.48918579 -49.19628906 236.50878906 C-54.07961085 236.45992502 -56.57792419 235.48371472 -60 232 C-61.30390695 229.39218609 -61.13359725 227.47806967 -61.14476013 224.55653381 C-61.15510788 222.82190384 -61.15510788 222.82190384 -61.16566467 221.05223083 C-61.16958473 219.13930992 -61.16958473 219.13930992 -61.17358398 217.18774414 C-61.17988823 215.83585394 -61.18665389 214.48396583 -61.19384766 213.13208008 C-61.20853396 210.21556595 -61.22025258 207.29905992 -61.22979546 204.38252449 C-61.24524905 199.76282629 -61.26920235 195.14319661 -61.29469299 190.52354431 C-61.36587891 177.38479961 -61.42549655 164.24601451 -61.47680664 151.10717773 C-61.50520559 143.85447716 -61.54064506 136.60184364 -61.58346039 129.34921354 C-61.61009544 124.76605808 -61.62808558 120.18297849 -61.63949764 115.59976113 C-61.64869307 112.73225854 -61.66608795 109.86484701 -61.68567657 106.99739838 C-61.69658732 105.05413337 -61.69789601 103.11082167 -61.69880676 101.16752625 C-61.79673019 89.25953065 -62.46502988 79.09144137 -70.7890625 70.05859375 C-76.92562791 64.20318572 -83.01432411 61.9421361 -91.4375 61.5625 C-99.43724252 61.81983437 -106.57827082 64.70108076 -112.46484375 70.15625 C-117.76076428 76.51674489 -120.12148231 83.72305158 -120.13130188 91.86947632 C-120.13531006 93.06952805 -120.13931824 94.26957977 -120.14344788 95.5059967 C-120.14291916 96.81934494 -120.14239044 98.13269318 -120.1418457 99.48583984 C-120.14487843 100.88554494 -120.1484002 102.28524904 -120.15237427 103.68495178 C-120.16025457 106.69748417 -120.16540489 109.71000477 -120.16866493 112.72254562 C-120.17458187 117.48805097 -120.1911284 122.2534819 -120.21000671 127.01895142 C-120.21634383 128.65131946 -120.22266945 130.28368755 -120.22898388 131.91605568 C-120.23214969 132.73346521 -120.2353155 133.55087473 -120.23857725 134.39305425 C-120.28063524 145.48565587 -120.31363321 156.57822236 -120.32592773 167.67089844 C-120.33430917 175.15617063 -120.35680119 182.64125804 -120.3952834 190.12643778 C-120.41503824 194.08598768 -120.42745053 198.04526141 -120.42244911 202.00486374 C-120.41780116 205.72982589 -120.43161534 209.45426442 -120.45946121 213.17912102 C-120.46965857 215.19370608 -120.46012385 217.2083609 -120.44996643 219.22294617 C-120.56480229 230.32821398 -120.56480229 230.32821398 -125 235 C-128.0727282 236.5363641 -131.30218081 236.16493711 -134.67504883 236.17700195 C-135.4671022 236.18357315 -136.25915558 236.19014435 -137.07521057 236.19691467 C-139.70248504 236.21666289 -142.32970232 236.22831359 -144.95703125 236.23828125 C-145.85362646 236.24235678 -146.75022167 236.2464323 -147.67398643 236.25063133 C-152.41945542 236.27149852 -157.16489543 236.28579745 -161.91040039 236.29516602 C-166.81332171 236.30623218 -171.71578939 236.3406325 -176.6185503 236.38033772 C-180.38723091 236.40647655 -184.15580298 236.41485541 -187.92456627 236.41844749 C-189.7318802 236.4233205 -191.53918906 236.43495478 -193.34641457 236.45348549 C-195.87689837 236.47781941 -198.40620273 236.47692276 -200.93676758 236.4699707 C-202.05523071 236.48918579 -202.05523071 236.48918579 -203.19628906 236.50878906 C-208.07961085 236.45992502 -210.57792419 235.48371472 -214 232 C-215.13472628 229.73054744 -215.12902122 228.49259748 -215.13701439 225.97284985 C-215.14208893 225.12548612 -215.14716347 224.27812239 -215.15239179 223.40508097 C-215.15288955 222.46881682 -215.15338731 221.53255267 -215.15390015 220.56791687 C-215.1582824 219.57743263 -215.16266465 218.58694838 -215.1671797 217.56644946 C-215.18060281 214.22618255 -215.18675441 210.88594203 -215.19287109 207.5456543 C-215.20076921 205.15941243 -215.20903797 202.77317177 -215.21765137 200.38693237 C-215.24163563 193.21082578 -215.25680311 186.0347139 -215.26971143 178.85858056 C-215.27342265 176.83232903 -215.27739593 174.8060782 -215.2814641 172.77982736 C-215.30669857 160.20155885 -215.32875528 147.62328927 -215.34119225 135.04500103 C-215.34412202 132.13099348 -215.34708367 129.21698598 -215.35009766 126.30297852 C-215.35121673 125.21656326 -215.35121673 125.21656326 -215.35235842 124.10820023 C-215.36501587 112.37165238 -215.39824374 100.63525589 -215.43989949 88.89877882 C-215.48230008 76.85388815 -215.50588505 64.80907502 -215.51111281 52.76410991 C-215.51452895 45.99934629 -215.52630775 39.23481926 -215.55921555 32.47012901 C-215.58919639 26.10813425 -215.59564349 19.74655266 -215.58383179 13.38450241 C-215.58361023 11.04676464 -215.591983 8.70900824 -215.60948563 6.37133598 C-215.63204972 3.18473247 -215.62394074 -0.00035658 -215.60800171 -3.18696594 C-215.62882484 -4.58132393 -215.62882484 -4.58132393 -215.65006864 -6.00385076 C-215.59406181 -10.53436312 -215.48309228 -12.3892147 -212.58699989 -16.05081463 C-208.44609541 -19.1707956 -206.17160184 -19.13408723 -200.98339844 -19.16113281 C-199.9001403 -19.16858017 -199.9001403 -19.16858017 -198.79499817 -19.17617798 C-196.39978082 -19.19081229 -194.00462976 -19.1976047 -191.609375 -19.203125 C-189.94508868 -19.20887669 -188.28080239 -19.21463442 -186.61651611 -19.22039795 C-183.1227589 -19.23091242 -179.62902472 -19.23675174 -176.13525391 -19.24023438 C-171.66520911 -19.24571125 -167.19547013 -19.26971997 -162.72552109 -19.29820633 C-159.28535077 -19.31686289 -155.84525355 -19.32203998 -152.40503693 -19.32357025 C-150.75765567 -19.32659197 -149.11027556 -19.33460426 -147.46294403 -19.34775543 C-145.15312221 -19.36487469 -142.84403979 -19.36292136 -140.53417969 -19.35644531 C-139.22116882 -19.36009094 -137.90815796 -19.36373657 -136.55535889 -19.36749268 C-132.70794201 -18.969812 -130.29025915 -17.99495178 -127 -16 C-124.35275599 -12.59640056 -124.41631047 -8.16310469 -124 -4 C-123.45214844 -4.42410156 -122.90429688 -4.84820312 -122.33984375 -5.28515625 C-85.18249838 -32.77554998 -34.88231572 -29.00019974 0 0 Z M-125 26.5 C-125.721875 27.3353125 -126.44375 28.170625 -127.1875 29.03125 C-129 31 -129 31 -131 32 C-140.56956522 32.30869565 -140.56956522 32.30869565 -143 31 C-145 25 -145 25 -146 2 C-162.17 2 -178.34 2 -195 2 C-195 72.29 -195 142.58 -195 215 C-177.51 215 -160.02 215 -142 215 C-141.97812622 209.14169434 -141.97812622 209.14169434 -141.95581055 203.16503906 C-141.90539214 190.23691479 -141.83893246 177.30891426 -141.76428509 164.38090897 C-141.71943163 156.54545695 -141.67999325 148.71004933 -141.65356445 140.87451172 C-141.63049932 134.04038273 -141.5970073 127.20639546 -141.55129844 120.37237906 C-141.52748024 116.75804062 -141.50867719 113.14384154 -141.50238609 109.52942657 C-141.49514502 105.48198179 -141.4646121 101.4350183 -141.43237305 97.38769531 C-141.43380814 96.20589188 -141.43524323 95.02408844 -141.4367218 93.80647278 C-141.26336291 78.33805612 -136.82736883 65.35099724 -126.125 54 C-115.40417369 43.90981053 -102.33124632 40.53503805 -87.91796875 40.7890625 C-77.46958259 41.35158778 -66.38052617 44.60986574 -58.8125 52.19140625 C-57.19079385 54.23544786 -57.19079385 54.23544786 -55 54 C-54.72929687 54.57363281 -54.45859375 55.14726562 -54.1796875 55.73828125 C-52.98075282 58.03690105 -51.61528199 60.06790204 -50.125 62.1875 C-45.16901603 69.53059605 -41.89981523 76.68554536 -41.84178162 85.60614014 C-41.82709839 87.31825432 -41.82709839 87.31825432 -41.81211853 89.06495667 C-41.80636307 90.31292526 -41.8006076 91.56089386 -41.79467773 92.84667969 C-41.78477814 94.16399582 -41.77487854 95.48131195 -41.76467896 96.83854675 C-41.73766624 100.44767958 -41.71663704 104.05682543 -41.69667697 107.66600323 C-41.67479498 111.43900101 -41.64741712 115.21195881 -41.62062073 118.98492432 C-41.57072376 126.12816982 -41.52577382 133.27143755 -41.48259836 140.4147265 C-41.43320038 148.54770177 -41.37829175 156.68063691 -41.32291877 164.81357336 C-41.2091447 181.54234657 -41.10302317 198.27115661 -41 215 C-23.51 215 -6.02 215 12 215 C12.06789924 195.83187046 12.12308745 176.66383933 12.15543652 157.49561977 C12.17086053 148.59412242 12.19186392 139.69270548 12.22631836 130.79125977 C12.25635825 123.02658517 12.2756074 115.26196884 12.28226548 107.49723774 C12.28615321 103.39146615 12.29519502 99.28586118 12.31719017 95.18014336 C12.33778677 91.30351124 12.34378785 87.42711194 12.33932304 83.5504303 C12.34013802 82.1392801 12.34596418 80.72812084 12.35761642 79.31701851 C12.50923645 59.98195248 8.31845799 42.33470593 -4 27 C-4.66773438 26.16855469 -5.33546875 25.33710938 -6.0234375 24.48046875 C-18.69886078 9.5857024 -35.77287617 0.18092332 -55.125 -2.75 C-83.50949481 -4.58125773 -106.18393777 5.42961721 -125 26.5 Z " fill="#000000" transform="translate(409,205)"/>
<path d="M0 0 C1.27399424 -0.01365544 2.54798848 -0.02731087 3.86058861 -0.04138011 C5.27215407 -0.03126089 6.68371619 -0.02066656 8.09527493 -0.00964832 C9.59660063 -0.0161253 11.09791827 -0.02477879 12.59922022 -0.03542262 C16.72651165 -0.05826834 20.85324038 -0.04984047 24.98055112 -0.03628337 C29.43136178 -0.02704256 33.88205949 -0.04650992 38.33283901 -0.06226063 C47.05456921 -0.08837863 55.77609347 -0.08725016 64.49784792 -0.07622244 C71.58908384 -0.06766819 78.68026014 -0.06849154 85.77149677 -0.07601833 C87.28479386 -0.07760067 87.28479386 -0.07760067 88.82866262 -0.07921496 C90.87817119 -0.08138589 92.92767974 -0.08357267 94.97718828 -0.08577511 C114.20832601 -0.10521738 133.43934826 -0.09319719 152.67047655 -0.07098917 C169.16123378 -0.05275547 185.65176692 -0.06361571 202.14250088 -0.09529591 C221.29343592 -0.13208453 240.44423099 -0.14906957 259.59520143 -0.13588363 C261.63935878 -0.13454255 263.68351614 -0.13323357 265.72767353 -0.13195705 C266.73341029 -0.13132639 267.73914706 -0.13069572 268.77536069 -0.13004595 C275.85211452 -0.12702177 282.92876262 -0.13826607 290.00549412 -0.15520763 C298.63892799 -0.17556422 307.27204606 -0.17461558 315.90546358 -0.14657523 C320.30807975 -0.13282986 324.71014525 -0.12855879 329.11274052 -0.15052509 C333.14930906 -0.17039826 337.18484497 -0.16219922 341.22134297 -0.13233075 C342.67563153 -0.12636002 344.13000522 -0.13033673 345.58422495 -0.14569398 C355.93567748 -0.2469754 364.5347842 1.41200815 372.64072853 8.25526983 C374.23341721 9.9610751 375.48056863 11.65572109 376.71794033 13.63199902 C377.08120777 14.18277652 377.4444752 14.73355402 377.81875074 15.30102175 C382.17707244 23.34742438 381.27864675 32.5224394 381.23933315 41.40063 C381.24537745 43.33025776 381.25315706 45.25988074 381.26251829 47.18949527 C381.28307981 52.48201316 381.27871438 57.77426011 381.2701571 63.06680024 C381.26522288 68.7786111 381.28325061 74.49035671 381.29823208 80.20214367 C381.32373127 91.38845757 381.3273128 102.57467547 381.32263155 113.76101355 C381.3190654 122.85395695 381.32256406 131.94687121 381.33108044 141.03981113 C381.33227081 142.33399611 381.33346119 143.62818109 381.33468764 144.96158379 C381.33711115 147.59073721 381.33953942 150.21989063 381.3419724 152.84904405 C381.35754668 170.50213329 381.36538522 188.15520894 381.35733891 205.80830383 C381.35702615 206.49838567 381.3567134 207.18846751 381.35639117 207.89946091 C381.35477965 211.39691302 381.35308811 214.89436508 381.35136457 218.39181713 C381.3508513 219.43368764 381.3508513 219.43368764 381.35032767 220.49660603 C381.34963436 221.90121571 381.3489373 223.30582538 381.3482365 224.71043505 C381.33752333 246.5636667 381.35338093 268.41673693 381.39030361 290.26993847 C381.43175781 314.83383177 381.45312413 339.39761568 381.44515264 363.96154708 C381.44132761 376.96330048 381.44631337 389.96490683 381.47458172 402.9666338 C381.49840422 414.03552182 381.50122506 425.10417228 381.47700138 436.17306355 C381.46522004 441.81918512 381.46303473 447.4648721 381.48700619 453.11096478 C381.50871139 458.28344403 381.50253359 463.45512554 381.47448282 468.62756737 C381.46918533 470.49492845 381.47393356 472.36235192 381.48995455 474.22965179 C381.58187367 485.74591285 380.99610523 495.48651274 372.97795928 504.61235648 C371.32384935 506.21084647 369.66847003 507.41607446 367.71794033 508.63199902 C367.14374355 508.99478954 366.56954678 509.35758007 365.9779501 509.73136425 C359.02465554 513.38662586 351.87134885 513.27475516 344.21452236 513.20841503 C341.95768176 513.19443547 339.70490813 513.22883823 337.44840908 513.26676464 C336.00179349 513.26771507 334.55517274 513.2658611 333.10856533 513.26090527 C331.8095126 513.26163036 330.51045986 513.26235546 329.17204189 513.26310253 C324.87230173 512.47749126 323.40203619 511.00964911 320.71794033 507.63199902 C320.05387783 505.13199902 320.05387783 505.13199902 320.09294033 502.63199902 C320.08004971 501.80699902 320.06715908 500.98199902 320.05387783 500.13199902 C321.09359074 496.21778573 322.36096155 494.94701699 325.71794033 492.63199902 C329.84036607 491.92244487 333.91764687 491.9324734 338.09294033 491.94449902 C348.19452368 492.26395339 348.19452368 492.26395339 357.71794033 489.63199902 C359.58417522 484.65873013 360.00520067 479.98669197 359.97241592 474.73116589 C359.9756224 473.96204125 359.97882888 473.19291661 359.98213252 472.40048516 C359.99042651 469.82613146 359.98451037 467.25201077 359.97863674 464.67765331 C359.98165769 462.81218945 359.98554688 460.94672683 359.99022931 459.0812664 C360.00052516 453.95706346 359.99832345 448.83293035 359.99404871 443.70872164 C359.99158441 438.18172574 360.00059191 432.65474679 360.0080862 427.12775707 C360.02084293 416.30114295 360.02262573 405.47455362 360.02028594 394.64793324 C360.01850391 385.85000631 360.02024996 377.05208691 360.02451038 368.25416088 C360.02540317 366.37692019 360.02540317 366.37692019 360.02631399 364.46175545 C360.02752572 361.91948231 360.02873985 359.37720917 360.02995636 356.83493602 C360.03774465 339.76306328 360.04166191 322.69119304 360.03763962 305.61931896 C360.03748324 304.95180477 360.03732687 304.28429057 360.03716575 303.59654867 C360.03635997 300.21333991 360.0355142 296.83013117 360.03465245 293.44692242 C360.03448136 292.77500845 360.03431027 292.10309448 360.034134 291.41081949 C360.03378735 290.05204724 360.03343882 288.69327499 360.03308841 287.33450274 C360.02772984 266.18658137 360.03566583 245.03870168 360.05412197 223.89078808 C360.07483403 200.13012914 360.08553522 176.36949242 360.08154649 152.60882187 C360.079632 140.02810288 360.08214619 127.44742188 360.09626102 114.86670971 C360.10815368 104.1581765 360.10960342 93.44970466 360.09747086 82.74117064 C360.09156764 77.27604578 360.09052258 71.81103328 360.10247326 66.34591579 C360.11328266 61.34468026 360.11028783 56.3436516 360.09621157 51.34242594 C360.093551 49.53162098 360.09597358 47.72080006 360.10394744 45.9100107 C360.1140268 43.45070052 360.10565464 40.99211317 360.09267044 38.53283215 C360.09997979 37.82805803 360.10728913 37.12328392 360.11481997 36.39715302 C360.05957227 31.35668001 359.25671768 27.92531451 356.71794033 23.63199902 C352.65990502 21.56647612 348.92141873 21.38245025 344.41821861 21.38425255 C343.1657836 21.37987055 341.91334858 21.37548855 340.62296098 21.37097377 C339.24095943 21.37620467 337.85895854 21.38161024 336.47695827 21.38717175 C335.00278859 21.38574886 333.52861954 21.38343555 332.05445248 21.3803094 C328.0072647 21.37421216 323.96017514 21.38044877 319.9129945 21.38862002 C315.54690659 21.39521084 311.18083113 21.3901999 306.81474209 21.38639355 C299.25029992 21.38117168 291.68588338 21.38266398 284.12144184 21.38816929 C272.16880987 21.39638121 260.21623319 21.38515626 248.26360989 21.37096691 C244.17442525 21.36636596 240.08524047 21.3619156 235.9960556 21.35752869 C234.97418583 21.35643055 233.95231606 21.3553324 232.89948053 21.35420099 C221.27069129 21.34202959 209.64190029 21.33447528 198.01310635 21.32853222 C196.95016143 21.32798416 195.88721652 21.3274361 194.79206116 21.32687143 C177.55282247 21.31840556 160.31359938 21.32175375 143.0743606 21.32768657 C125.37924805 21.33329909 107.68421426 21.31979561 89.98912579 21.29013377 C79.07145085 21.27257109 68.15400329 21.27098454 57.23632932 21.28977893 C49.75941245 21.30136255 42.2826494 21.29497344 34.80575257 21.27430972 C30.48911098 21.26296226 26.17286542 21.25987475 21.85624027 21.2784853 C17.90654126 21.29535688 13.95756946 21.28936075 10.00791574 21.26498673 C8.57733142 21.26024687 7.14668912 21.26400695 5.71615606 21.27701219 C-6.32112049 21.37890334 -6.32112049 21.37890334 -9.62268066 18.24913788 C-11.40833637 15.43283796 -11.9587922 13.94288098 -11.90705967 10.63199902 C-11.91995029 9.80699902 -11.93284092 8.98199902 -11.94612217 8.13199902 C-10.31165758 1.97872058 -5.94158591 0.00731013 0 0 Z " fill="#000000" transform="translate(131.28205966949463,-0.6319990158081055)"/>
<path d="M0 0 C2.25684061 0.01397956 4.50961423 -0.0204232 6.76611328 -0.05834961 C8.21272887 -0.05930004 9.65934962 -0.05744607 11.10595703 -0.05249023 C13.05453613 -0.05357788 13.05453613 -0.05357788 15.04248047 -0.0546875 C19.34222063 0.73092378 20.81248617 2.19876592 23.49658203 5.57641602 C24.16064453 8.07641602 24.16064453 8.07641602 24.12158203 10.57641602 C24.13447266 11.40141602 24.14736328 12.22641602 24.16064453 13.07641602 C23.12063762 16.99173615 21.85641804 18.26348543 18.49658203 20.57641602 C14.37336512 21.26095083 10.2935883 21.23025477 6.12158203 21.20141602 C-4.17751458 20.91424311 -4.17751458 20.91424311 -13.50341797 24.57641602 C-15.52178363 29.14657673 -15.78847034 33.43435051 -15.75789356 38.35420132 C-15.76110004 39.12217211 -15.76430652 39.89014291 -15.76761016 40.68138555 C-15.77591944 43.25783545 -15.76998264 45.83405345 -15.76411438 48.4105072 C-15.76713463 50.27510801 -15.77102348 52.13970758 -15.77570695 54.00430495 C-15.78601184 59.13076721 -15.78379879 64.25715973 -15.77952635 69.38362777 C-15.77706366 74.91132293 -15.78606757 80.43900109 -15.79356384 85.96669006 C-15.80632536 96.7967834 -15.80810274 107.62685196 -15.80576358 118.45695155 C-15.80398197 127.25776282 -15.80572668 136.05856655 -15.80998802 144.85937691 C-15.81058321 146.11100619 -15.8111784 147.36263547 -15.81179162 148.65219291 C-15.81300335 151.19470759 -15.81421748 153.73722227 -15.815434 156.27973694 C-15.82322329 173.35547991 -15.82713887 190.43122038 -15.82311726 207.50696468 C-15.82296088 208.1747449 -15.8228045 208.84252511 -15.82264339 209.53054109 C-15.8218376 212.91514067 -15.82099183 216.29974024 -15.82013009 219.68433981 C-15.81987346 220.69263428 -15.81987346 220.69263428 -15.81961164 221.72129832 C-15.81926498 223.08064224 -15.81891645 224.43998615 -15.81856605 225.79933007 C-15.81320807 246.95380163 -15.82114134 268.10823152 -15.83959961 289.26269531 C-15.86031176 313.02810802 -15.87101278 336.79349851 -15.86702412 360.55892283 C-15.86510955 373.14301017 -15.86762455 385.72705953 -15.88173866 398.31114006 C-15.89363154 409.02335728 -15.89508086 419.73551316 -15.8829485 430.44773119 C-15.87704525 435.91487436 -15.87600028 441.38190519 -15.8879509 446.84904099 C-15.89876032 451.85216682 -15.89576543 456.85508585 -15.88168921 461.85820181 C-15.87902863 463.66970961 -15.88145125 465.48123335 -15.88942508 467.29272556 C-15.89950441 469.75299746 -15.8911323 472.21254681 -15.87814808 474.67278957 C-15.88545742 475.37784953 -15.89276677 476.08290949 -15.90029761 476.8093349 C-15.84506281 481.85058108 -15.04268965 485.28250398 -12.50341797 489.57641602 C-8.44538266 491.64193891 -4.70689636 491.82596478 -0.20369625 491.82416248 C1.04873877 491.82854448 2.30117378 491.83292648 3.59156138 491.83744127 C4.97356293 491.83221037 6.35556383 491.82680479 7.73756409 491.82124329 C9.21173377 491.82266617 10.68590282 491.82497948 12.16006988 491.82810563 C16.20725766 491.83420287 20.25434722 491.82796626 24.30152786 491.81979501 C28.66761577 491.81320419 33.03369123 491.81821513 37.39978027 491.82202148 C44.96422244 491.82724335 52.52863899 491.82575105 60.09308052 491.82024574 C72.04571249 491.81203382 83.99828917 491.82325877 95.95091248 491.83744812 C100.04009711 491.84204907 104.12928189 491.84649943 108.21846676 491.85088634 C109.24033653 491.85198449 110.26220631 491.85308263 111.31504183 491.85421405 C122.94383107 491.86638544 134.57262208 491.87393975 146.20141602 491.87988281 C147.26436093 491.88043087 148.32730584 491.88097893 149.4224612 491.8815436 C166.66169989 491.89000947 183.90092298 491.88666128 201.14016176 491.88072846 C218.83527431 491.87511594 236.5303081 491.88861942 254.22539657 491.91828126 C265.14307151 491.93584395 276.06051907 491.93743049 286.97819304 491.91863611 C294.45510991 491.90705248 301.93187296 491.91344159 309.40876979 491.93410531 C313.72541138 491.94545277 318.04165694 491.94854028 322.35828209 491.92992973 C326.3079811 491.91305815 330.2569529 491.91905428 334.20660662 491.9434283 C335.63719094 491.94816816 337.06783324 491.94440808 338.4983663 491.93140284 C350.53564286 491.82951169 350.53564286 491.82951169 353.83720303 494.95927715 C355.62285874 497.77557707 356.17331456 499.26553406 356.12158203 502.57641602 C356.13447266 503.40141602 356.14736328 504.22641602 356.16064453 505.07641602 C355.19686077 508.70477841 353.35042422 510.19089463 350.49658203 512.57641602 C347.54900688 513.2043125 347.54900688 513.2043125 344.21452236 513.20841503 C342.94052812 513.22207047 341.66653388 513.2357259 340.35393375 513.24979514 C338.94236829 513.23967592 337.53080617 513.22908159 336.11924744 513.21806335 C334.61792173 513.22454033 333.11660409 513.23319382 331.61530215 513.24383765 C327.48801071 513.26668338 323.36128198 513.2582555 319.23397124 513.24469841 C314.78316058 513.23545759 310.33246287 513.25492495 305.88168335 513.27067566 C297.15995316 513.29679367 288.43842889 513.29566519 279.71667444 513.28463747 C272.62543852 513.27608322 265.53426223 513.27690657 258.44302559 513.28443336 C256.9297285 513.2860157 256.9297285 513.2860157 255.38585975 513.28763 C253.33635117 513.28980092 251.28684262 513.2919877 249.23733408 513.29419015 C230.00619636 513.31363241 210.7751741 513.30161222 191.54404581 513.2794042 C175.05328858 513.26117051 158.56275544 513.27203075 142.07202148 513.30371094 C122.92108645 513.34049957 103.77029137 513.3574846 84.61932093 513.34429866 C82.57516358 513.34295758 80.53100622 513.3416486 78.48684883 513.34037209 C77.48111207 513.33974142 76.4753753 513.33911075 75.43916167 513.33846098 C68.36240784 513.3354368 61.28575974 513.3466811 54.20902824 513.36362267 C45.57559437 513.38397926 36.9424763 513.38303061 28.30905878 513.35499027 C23.90644261 513.34124489 19.50437712 513.33697382 15.10178185 513.35894012 C11.0652133 513.37881329 7.02967739 513.37061425 2.99317939 513.34074578 C1.53889083 513.33477506 0.08451714 513.33875176 -1.36970259 513.35410901 C-11.72115511 513.45539043 -20.32026184 511.79640688 -28.42620617 504.95314521 C-30.01889485 503.24733993 -31.26604626 501.55269394 -32.50341797 499.57641602 C-32.8666854 499.02563851 -33.22995284 498.47486101 -33.60422838 497.90739328 C-37.96255008 489.86099065 -37.06412438 480.68597564 -37.02481079 471.80778503 C-37.03085509 469.87815727 -37.0386347 467.94853429 -37.04799592 466.01891977 C-37.06855745 460.72640187 -37.06419202 455.43415492 -37.05563474 450.14161479 C-37.05070052 444.42980393 -37.06872825 438.71805833 -37.08370972 433.00627136 C-37.10920891 421.81995746 -37.11279044 410.63373956 -37.10810919 399.44740149 C-37.10454304 390.35445808 -37.1080417 381.26154382 -37.11655807 372.1686039 C-37.11774845 370.87441892 -37.11893883 369.58023394 -37.12016528 368.24683124 C-37.12258879 365.61767782 -37.12501706 362.9885244 -37.12745003 360.35937098 C-37.14302432 342.70628174 -37.15086286 325.05320609 -37.14281654 307.4001112 C-37.14250379 306.71002936 -37.14219104 306.01994753 -37.14186881 305.30895412 C-37.14025729 301.81150201 -37.13856575 298.31404995 -37.13684221 294.8165979 C-37.13650003 294.12201756 -37.13615786 293.42743723 -37.13580531 292.711809 C-37.135112 291.30719932 -37.13441494 289.90258965 -37.13371414 288.49797998 C-37.12300096 266.64474833 -37.13885857 244.7916781 -37.17578125 222.93847656 C-37.21723544 198.37458326 -37.23860177 173.81079935 -37.23063028 149.24686795 C-37.22680524 136.24511455 -37.231791 123.2435082 -37.26005936 110.24178123 C-37.28388186 99.17289321 -37.2867027 88.10424275 -37.26247902 77.03535148 C-37.25069768 71.38922991 -37.24851237 65.74354293 -37.27248383 60.09745026 C-37.29418902 54.92497101 -37.28801122 49.75328949 -37.25996046 44.58084766 C-37.25466297 42.71348658 -37.2594112 40.84606311 -37.27543218 38.97876325 C-37.36735131 27.46250218 -36.78158287 17.72190229 -28.76343691 8.59605855 C-27.10932699 6.99756856 -25.45394767 5.79234057 -23.50341797 4.57641602 C-22.92922119 4.21362549 -22.35502441 3.85083496 -21.76342773 3.47705078 C-14.81013318 -0.17821083 -7.65682649 -0.06634013 0 0 Z " fill="#000000" transform="translate(36.50341796875,-0.576416015625)"/>
<path d="M0 0 C1.1419986 -0.0098568 1.1419986 -0.0098568 2.30706787 -0.01991272 C4.82670187 -0.03962398 7.34627634 -0.05130318 9.8659668 -0.0612793 C10.7272991 -0.06535482 11.5886314 -0.06943035 12.47606468 -0.07362938 C17.03465917 -0.09448042 21.59322363 -0.10878656 26.15185547 -0.11816406 C30.85624065 -0.12922914 35.56015291 -0.16363275 40.26437092 -0.20333576 C43.88554251 -0.22949934 47.50660132 -0.23785563 51.12785912 -0.24144554 C52.86177961 -0.24631183 54.59569506 -0.2579271 56.32952309 -0.27648354 C58.75912443 -0.30087117 61.18750084 -0.29991117 63.6171875 -0.29296875 C64.32961105 -0.30577881 65.04203461 -0.31858887 65.77604675 -0.33178711 C70.79018912 -0.27971458 73.64205104 1.02854625 77.50268555 4.17700195 C78.63781507 6.447261 78.63077048 7.68355515 78.63690662 10.20415211 C78.64136447 11.05151583 78.64582231 11.89887956 78.65041524 12.77192098 C78.65023088 13.70818513 78.65004652 14.64444929 78.64985657 15.60908508 C78.65353326 16.59956933 78.65720994 17.59005357 78.66099805 18.61055249 C78.67206764 21.95082269 78.67588425 25.29106183 78.6796875 28.63134766 C78.68594961 31.01758931 78.69259618 33.40382999 78.69960022 35.79006958 C78.71885125 42.96618044 78.72943153 50.14229192 78.73832801 57.31842139 C78.74270959 60.69637903 78.74807672 64.0743351 78.75331688 67.45229149 C78.77032953 78.67885799 78.78482438 89.90542351 78.79206562 101.13200092 C78.79397557 104.04600844 78.79589589 106.96001595 78.79785156 109.87402344 C78.7983353 110.59830027 78.79881904 111.32257711 78.79931744 112.06880172 C78.80762026 123.8053243 78.8329612 135.54174504 78.86543224 147.27822313 C78.89848536 159.32311483 78.91651278 171.36795474 78.91970986 183.41289204 C78.92187654 190.17761657 78.93064814 196.94219257 78.95617104 203.70687294 C78.97937781 210.0688273 78.98371472 216.4305139 78.97340965 222.79249954 C78.9729124 225.13023072 78.97928821 227.46797475 78.9929657 229.80566597 C79.01056898 232.99209116 79.00363506 236.1775433 78.99043274 239.3639679 C79.00140199 240.29353988 79.01237123 241.22311187 79.02367288 242.18085271 C78.98152116 246.38176737 78.86796376 248.59216576 76.59720135 252.22781658 C72.8866528 255.68090438 69.6662746 255.34245261 64.82763672 255.36987305 C63.63955666 255.38213928 63.63955666 255.38213928 62.42747498 255.39465332 C59.80020914 255.41951313 57.17299735 255.43602461 54.5456543 255.45043945 C53.64905909 255.45576313 52.75246387 255.46108681 51.82869911 255.46657181 C47.08323648 255.4933057 42.33780019 255.51267999 37.59228516 255.52709961 C32.68925987 255.54374998 27.78690644 255.58853004 22.88413525 255.63947105 C19.11545535 255.67311702 15.34693545 255.68467409 11.57811928 255.69032669 C9.77078427 255.69704632 7.96346005 255.7122869 6.15627098 255.7362175 C3.62559538 255.76781682 1.09673883 255.76791432 -1.43408203 255.76049805 C-2.17972412 255.77690338 -2.92536621 255.79330872 -3.69360352 255.81021118 C-7.66656235 255.7625863 -9.32407575 255.31902694 -12.43876648 252.76553345 C-16.05344994 248.22023157 -15.64820176 244.4433939 -15.6512146 238.82757568 C-15.65559685 237.84596411 -15.65997911 236.86435254 -15.66449416 235.85299516 C-15.67791703 232.54270127 -15.68406883 229.23243403 -15.69018555 225.92211914 C-15.69808373 223.55720396 -15.7063525 221.19229 -15.71496582 218.82737732 C-15.73895081 211.71504061 -15.75411831 204.60269857 -15.76702589 197.49033487 C-15.77073724 195.48183896 -15.77471052 193.47334374 -15.77877855 191.46484852 C-15.80401475 178.99527868 -15.82607025 166.52570776 -15.8385067 154.05611801 C-15.84143645 151.1672134 -15.84439811 148.27830882 -15.84741211 145.3894043 C-15.84815816 144.671371 -15.84890421 143.95333771 -15.84967287 143.21354583 C-15.86232721 131.58113725 -15.89555071 119.94888151 -15.93721394 108.31654438 C-15.97962822 96.37674004 -16.00320114 84.43701394 -16.00842726 72.49713445 C-16.01184201 65.79214172 -16.02360423 59.0873878 -16.05653 52.38246918 C-16.0865322 46.07546226 -16.09295022 39.76887214 -16.08114624 33.46180916 C-16.08092485 31.14545453 -16.08928334 28.829081 -16.10680008 26.51279259 C-16.12939854 23.35281043 -16.12123904 20.1943515 -16.10531616 17.03436279 C-16.11919825 16.11548554 -16.13308034 15.19660829 -16.14738309 14.24988627 C-16.09402132 9.95845293 -15.86016497 7.05863675 -13.14681435 3.6234169 C-9.00869803 -0.19751158 -5.34645498 0.0200086 0 0 Z M5.50268555 21.17700195 C5.50268555 91.46700195 5.50268555 161.75700195 5.50268555 234.17700195 C22.99268555 234.17700195 40.48268555 234.17700195 58.50268555 234.17700195 C58.50268555 163.88700195 58.50268555 93.59700195 58.50268555 21.17700195 C41.01268555 21.17700195 23.52268555 21.17700195 5.50268555 21.17700195 Z " fill="#000000" transform="translate(91.497314453125,185.822998046875)"/>
<path d="M0 0 C11.71910453 8.21804826 20.08084291 18.80743307 23.765625 32.73046875 C26.13086821 48.57980875 24.26038773 63.6413418 15.09375 77.03125 C6.6175646 88.12482598 -5.81090625 96.41531115 -19.81640625 98.53125 C-36.49861776 99.41823875 -51.38896209 96.90819798 -64.62890625 85.78125 C-74.83352603 76.01950703 -81.12723151 63.47852565 -82.01953125 49.3046875 C-82.2372287 33.52162205 -78.09815798 19.21499182 -67.015625 7.5625 C-48.54607067 -9.49641341 -21.84772362 -13.14872174 0 0 Z M-52.81640625 23.53125 C-58.93369179 31.75560056 -62.01503473 40.2530108 -60.81640625 50.53125 C-58.51398452 59.92408412 -53.9703355 68.17367798 -45.7109375 73.5 C-37.39015971 78.02924812 -28.34270592 79.01153766 -19.078125 76.91015625 C-9.79288494 73.66104426 -3.16914342 67.25389536 1.30859375 58.609375 C4.55934177 50.88884844 4.4763611 41.05572268 1.68359375 33.21875 C-2.70089746 23.89787357 -9.35644918 18.29506951 -18.81640625 14.53125 C-30.80759686 10.53418646 -44.08221999 14.74083507 -52.81640625 23.53125 Z " fill="#000000" transform="translate(151.81640625,78.46875)"/>
<path d="M0 0 C3.125 1.875 3.125 1.875 5 5 C5.98876625 10.02622846 5.7769173 13.70513784 3.125 18.125 C-1.29486216 20.7769173 -4.97377154 20.98876625 -10 20 C-13.125 18.125 -13.125 18.125 -15 15 C-15.98876625 9.97377154 -15.7769173 6.29486216 -13.125 1.875 C-8.70513784 -0.7769173 -5.02622846 -0.98876625 0 0 Z " fill="#000000" transform="translate(427,492)"/>
<path d="M0 0 C3.125 1.875 3.125 1.875 5 5 C5.98876625 10.02622846 5.7769173 13.70513784 3.125 18.125 C-1.29486216 20.7769173 -4.97377154 20.98876625 -10 20 C-13.125 18.125 -13.125 18.125 -15 15 C-15.98876625 9.97377154 -15.7769173 6.29486216 -13.125 1.875 C-8.70513784 -0.7769173 -5.02622846 -0.98876625 0 0 Z " fill="#000000" transform="translate(95,0)"/>
</svg>
